  0
SECTION
  2
HEADER
  9
$ACADVER
  1
AC1009
  9
$FILLMODE
 70
0
  9
$EXTMIN
 10
-0.302500
 20
-0.008000
 30
0.000000
  9
$EXTMAX
 10
2.302500
 20
2.140000
 30
0.000000
  0
ENDSEC
  0
SECTION
  2
TABLES
  0
TABLE
  2
LTYPE
 70
1
  0
LTYPE
  2
CONTINUOUS
 70
64
  3
Solid line
 72
65
 73
0
 40
0
  0
ENDTAB
  0
TABLE
  2
LAYER
 70
255
  0
LAYER
  2
19
 70
64
 62
53
  6
CONTINUOUS
  0
LAYER
  2
20
 70
64
 62
7
  6
CONTINUOUS
  0
LAYER
  2
21
 70
64
 62
253
  6
CONTINUOUS
  0
ENDTAB
  0
ENDSEC
  0
SECTION
  2
BLOCKS
  0
BLOCK
  8
0
  2
RECT
 70
64
 10
0.000000
 20
0.000000
 30
0.000000
  3
RECT
  0
SOLID
  8
0
 10
-0.500000
 20
-0.500000
 30
0.000000
 11
0.500000
 21
-0.500000
 31
0.000000
 12
-0.500000
 22
0.500000
 32
0.000000
 13
0.500000
 23
0.500000
 33
0.000000
  0
ENDBLK
  8
0
  0
BLOCK
  8
0
  2
PIE
 70
64
 10
0.000000
 20
0.000000
 30
0.000000
  3
PIE
  0
CIRCLE
  8
0
 10
0.000000
 20
0.000000
 30
0.000000
 40
0.500000
  0
ENDBLK
  8
0
  0
BLOCK
  8
0
  2
OCTAGONP
 70
64
 10
0.000000
 20
0.000000
 30
0.000000
  3
OCTAGONP
  0
POLYLINE
  8
0
 66
1
 10
0.000000
 20
0.000000
 30
0.000000
 40
0.000000
 41
0.000000
 70
1
  0
VERTEX
  8
0
 10
-0.500000
 20
-0.207107
 30
0.000000
  0
VERTEX
  8
0
 10
-0.500000
 20
0.207107
 30
0.000000
  0
VERTEX
  8
0
 10
-0.207107
 20
0.500000
 30
0.000000
  0
VERTEX
  8
0
 10
0.207107
 20
0.500000
 30
0.000000
  0
VERTEX
  8
0
 10
0.500000
 20
0.207107
 30
0.000000
  0
VERTEX
  8
0
 10
0.500000
 20
-0.207107
 30
0.000000
  0
VERTEX
  8
0
 10
0.207107
 20
-0.500000
 30
0.000000
  0
VERTEX
  8
0
 10
-0.207107
 20
-0.500000
 30
0.000000
  0
SEQEND
  8
0
  0
ENDBLK
  8
0
  0
BLOCK
  8
0
  2
SQUAREP
 70
64
 10
0.000000
 20
0.000000
 30
0.000000
  3
SQUAREP
  0
SOLID
  8
0
 10
-0.500000
 20
-0.500000
 30
0.000000
 11
0.500000
 21
-0.500000
 31
0.000000
 12
-0.500000
 22
0.500000
 32
0.000000
 13
0.500000
 23
0.500000
 33
0.000000
  0
ENDBLK
  8
0
  0
BLOCK
  8
0
  2
ROUNDP
 70
64
 10
0.000000
 20
0.000000
 30
0.000000
  3
ROUNDP
  0
CIRCLE
  8
0
 10
0.000000
 20
0.000000
 30
0.000000
 40
0.500000
  0
ENDBLK
  8
0
  0
BLOCK
  8
0
  2
ANNULUSP
 70
64
 10
0.000000
 20
0.000000
 30
0.000000
  3
ANNULUSP
  0
CIRCLE
  8
0
 10
0.000000
 20
0.000000
 30
0.000000
 40
0.500000
  0
ENDBLK
  8
0
  0
BLOCK
  8
0
  2
THERMALP
 70
64
 10
0.000000
 20
0.000000
 30
0.000000
  3
THERMALP
  0
LINE
  8
0
 10
-0.237868
 20
0.450000
 30
0.000000
 11
0.237868
 21
0.450000
 31
0.000000
  0
LINE
  8
0
 10
0.450000
 20
0.237868
 30
0.000000
 11
0.450000
 21
-0.237868
 31
0.000000
  0
LINE
  8
0
 10
0.237868
 20
-0.450000
 30
0.000000
 11
-0.237868
 21
-0.450000
 31
0.000000
  0
LINE
  8
0
 10
-0.450000
 20
-0.237868
 30
0.000000
 11
-0.450000
 21
0.237868
 31
0.000000
  0
ENDBLK
  8
0
  0
BLOCK
  8
0
  2
OCTAGONV
 70
64
 10
0.000000
 20
0.000000
 30
0.000000
  3
OCTAGONV
  0
POLYLINE
  8
0
 66
1
 10
0.000000
 20
0.000000
 30
0.000000
 40
0.000000
 41
0.000000
 70
1
  0
VERTEX
  8
0
 10
-0.500000
 20
-0.207107
 30
0.000000
  0
VERTEX
  8
0
 10
-0.500000
 20
0.207107
 30
0.000000
  0
VERTEX
  8
0
 10
-0.207107
 20
0.500000
 30
0.000000
  0
VERTEX
  8
0
 10
0.207107
 20
0.500000
 30
0.000000
  0
VERTEX
  8
0
 10
0.500000
 20
0.207107
 30
0.000000
  0
VERTEX
  8
0
 10
0.500000
 20
-0.207107
 30
0.000000
  0
VERTEX
  8
0
 10
0.207107
 20
-0.500000
 30
0.000000
  0
VERTEX
  8
0
 10
-0.207107
 20
-0.500000
 30
0.000000
  0
SEQEND
  8
0
  0
ENDBLK
  8
0
  0
BLOCK
  8
0
  2
SQUAREV
 70
64
 10
0.000000
 20
0.000000
 30
0.000000
  3
SQUAREV
  0
SOLID
  8
0
 10
-0.500000
 20
-0.500000
 30
0.000000
 11
0.500000
 21
-0.500000
 31
0.000000
 12
-0.500000
 22
0.500000
 32
0.000000
 13
0.500000
 23
0.500000
 33
0.000000
  0
ENDBLK
  8
0
  0
BLOCK
  8
0
  2
ROUNDV
 70
64
 10
0.000000
 20
0.000000
 30
0.000000
  3
ROUNDV
  0
CIRCLE
  8
0
 10
0.000000
 20
0.000000
 30
0.000000
 40
0.500000
  0
ENDBLK
  8
0
  0
BLOCK
  8
0
  2
ANNULUSV
 70
64
 10
0.000000
 20
0.000000
 30
0.000000
  3
ANNULUSV
  0
CIRCLE
  8
0
 10
0.000000
 20
0.000000
 30
0.000000
 40
0.500000
  0
ENDBLK
  8
0
  0
BLOCK
  8
0
  2
THERMALV
 70
64
 10
0.000000
 20
0.000000
 30
0.000000
  3
THERMALV
  0
LINE
  8
0
 10
-0.237868
 20
0.450000
 30
0.000000
 11
0.237868
 21
0.450000
 31
0.000000
  0
LINE
  8
0
 10
0.450000
 20
0.237868
 30
0.000000
 11
0.450000
 21
-0.237868
 31
0.000000
  0
LINE
  8
0
 10
0.237868
 20
-0.450000
 30
0.000000
 11
-0.237868
 21
-0.450000
 31
0.000000
  0
LINE
  8
0
 10
-0.450000
 20
-0.237868
 30
0.000000
 11
-0.450000
 21
0.237868
 31
0.000000
  0
ENDBLK
  8
0
  0
BLOCK
  8
0
  2
LONGP100
 70
64
 10
0.000000
 20
0.000000
 30
0.000000
  3
LONGP100
  0
POLYLINE
  8
0
 66
1
 10
0.000000
 20
0.000000
 30
0.000000
 40
0.000000
 41
0.000000
 70
1
  0
VERTEX
  8
0
 10
-0.500000
 20
-0.500000
 30
0.000000
  0
VERTEX
  8
0
 10
0.500000
 20
-0.500000
 30
0.000000
 42
1.000000
  0
VERTEX
  8
0
 10
0.500000
 20
0.500000
 30
0.000000
  0
VERTEX
  8
0
 10
-0.500000
 20
0.500000
 30
0.000000
 42
1.000000
  0
SEQEND
  8
0
  0
ENDBLK
  8
0
  0
ENDSEC
  0
SECTION
  2
ENTITIES
  0
LINE
  8
20
 10
0.000000
 20
0.000000
 30
0.000000
 11
0.000000
 21
2.000000
 31
0.000000
  0
LINE
  8
20
 10
0.000000
 20
2.000000
 30
0.000000
 11
2.000000
 21
2.000000
 31
0.000000
  0
LINE
  8
20
 10
2.000000
 20
2.000000
 30
0.000000
 11
2.000000
 21
0.000000
 31
0.000000
  0
LINE
  8
20
 10
2.000000
 20
0.000000
 30
0.000000
 11
0.000000
 21
0.000000
 31
0.000000
  0
CIRCLE
  8
20
 10
1.925000
 20
0.075000
 30
0.000000
 40
0.058000
  0
CIRCLE
  8
20
 10
1.925000
 20
1.925000
 30
0.000000
 40
0.058000
  0
CIRCLE
  8
20
 10
0.075000
 20
1.925000
 30
0.000000
 40
0.058000
  0
CIRCLE
  8
20
 10
0.075000
 20
0.075000
 30
0.000000
 40
0.058000
  0
LINE
  8
21
 10
0.550000
 20
1.500000
 30
0.000000
 11
0.550000
 21
1.450000
 31
0.000000
  0
LINE
  8
21
 10
0.450000
 20
1.525000
 30
0.000000
 11
0.650000
 21
1.525000
 31
0.000000
  0
LINE
  8
21
 10
0.650000
 20
1.525000
 30
0.000000
 11
0.650000
 21
1.425000
 31
0.000000
  0
LINE
  8
21
 10
0.650000
 20
1.425000
 30
0.000000
 11
0.450000
 21
1.425000
 31
0.000000
  0
LINE
  8
21
 10
0.450000
 20
1.425000
 30
0.000000
 11
0.450000
 21
1.525000
 31
0.000000
  0
LINE
  8
21
 10
0.850000
 20
1.750000
 30
0.000000
 11
0.850000
 21
1.800000
 31
0.000000
  0
LINE
  8
21
 10
0.950000
 20
1.725000
 30
0.000000
 11
0.750000
 21
1.725000
 31
0.000000
  0
LINE
  8
21
 10
0.750000
 20
1.725000
 30
0.000000
 11
0.750000
 21
1.825000
 31
0.000000
  0
LINE
  8
21
 10
0.750000
 20
1.825000
 30
0.000000
 11
0.950000
 21
1.825000
 31
0.000000
  0
LINE
  8
21
 10
0.950000
 20
1.825000
 30
0.000000
 11
0.950000
 21
1.725000
 31
0.000000
  0
LINE
  8
21
 10
0.850000
 20
1.875000
 30
0.000000
 11
0.850000
 21
1.925000
 31
0.000000
  0
LINE
  8
21
 10
0.950000
 20
1.850000
 30
0.000000
 11
0.750000
 21
1.850000
 31
0.000000
  0
LINE
  8
21
 10
0.750000
 20
1.850000
 30
0.000000
 11
0.750000
 21
1.950000
 31
0.000000
  0
LINE
  8
21
 10
0.750000
 20
1.950000
 30
0.000000
 11
0.950000
 21
1.950000
 31
0.000000
  0
LINE
  8
21
 10
0.950000
 20
1.950000
 30
0.000000
 11
0.950000
 21
1.850000
 31
0.000000
  0
LINE
  8
21
 10
0.850000
 20
1.587500
 30
0.000000
 11
0.850000
 21
1.637500
 31
0.000000
  0
LINE
  8
21
 10
0.950000
 20
1.562500
 30
0.000000
 11
0.750000
 21
1.562500
 31
0.000000
  0
LINE
  8
21
 10
0.750000
 20
1.562500
 30
0.000000
 11
0.750000
 21
1.662500
 31
0.000000
  0
LINE
  8
21
 10
0.750000
 20
1.662500
 30
0.000000
 11
0.950000
 21
1.662500
 31
0.000000
  0
LINE
  8
21
 10
0.950000
 20
1.662500
 30
0.000000
 11
0.950000
 21
1.562500
 31
0.000000
  0
LINE
  8
21
 10
0.850000
 20
1.462500
 30
0.000000
 11
0.850000
 21
1.512500
 31
0.000000
  0
LINE
  8
21
 10
0.950000
 20
1.437500
 30
0.000000
 11
0.750000
 21
1.437500
 31
0.000000
  0
LINE
  8
21
 10
0.750000
 20
1.437500
 30
0.000000
 11
0.750000
 21
1.537500
 31
0.000000
  0
LINE
  8
21
 10
0.750000
 20
1.537500
 30
0.000000
 11
0.950000
 21
1.537500
 31
0.000000
  0
LINE
  8
21
 10
0.950000
 20
1.537500
 30
0.000000
 11
0.950000
 21
1.437500
 31
0.000000
  0
LINE
  8
21
 10
0.520000
 20
1.400000
 30
0.000000
 11
0.680000
 21
1.400000
 31
0.000000
  0
LINE
  8
21
 10
0.520000
 20
1.400000
 30
0.000000
 11
0.520000
 21
1.300000
 31
0.000000
  0
LINE
  8
21
 10
0.680000
 20
1.300000
 30
0.000000
 11
0.520000
 21
1.300000
 31
0.000000
  0
LINE
  8
21
 10
0.680000
 20
1.300000
 30
0.000000
 11
0.680000
 21
1.400000
 31
0.000000
  0
LINE
  8
21
 10
0.625000
 20
1.350000
 30
0.000000
 11
0.600000
 21
1.350000
 31
0.000000
  0
LINE
  8
21
 10
0.560000
 20
1.325000
 30
0.000000
 11
0.560000
 21
1.375000
 31
0.000000
  0
LINE
  8
21
 10
0.560000
 20
1.375000
 30
0.000000
 11
0.600000
 21
1.350000
 31
0.000000
  0
LINE
  8
21
 10
0.600000
 20
1.350000
 30
0.000000
 11
0.540000
 21
1.350000
 31
0.000000
  0
LINE
  8
21
 10
0.600000
 20
1.350000
 30
0.000000
 11
0.560000
 21
1.325000
 31
0.000000
  0
LINE
  8
21
 10
0.600000
 20
1.325000
 30
0.000000
 11
0.600000
 21
1.350000
 31
0.000000
  0
LINE
  8
21
 10
0.600000
 20
1.350000
 30
0.000000
 11
0.600000
 21
1.375000
 31
0.000000
  0
INSERT
  8
21
  2
RECT
 10
0.655000
 20
1.350000
 30
0.000000
 41
0.020000
 42
0.100000
 43
1.000000
 50
180.000000
  0
INSERT
  8
21
  2
RECT
 10
0.482500
 20
1.350000
 30
0.000000
 41
0.075000
 42
0.030000
 43
1.000000
 50
180.000000
  0
INSERT
  8
21
  2
RECT
 10
0.717500
 20
1.350000
 30
0.000000
 41
0.075000
 42
0.030000
 43
1.000000
 50
180.000000
  0
LINE
  8
21
 10
0.172835
 20
1.560630
 30
0.000000
 11
0.255512
 21
1.560630
 31
0.000000
  0
LINE
  8
21
 10
0.172835
 20
1.981890
 30
0.000000
 11
0.172835
 21
1.773228
 31
0.000000
  0
LINE
  8
21
 10
0.172835
 20
1.560630
 30
0.000000
 11
0.172835
 21
1.588189
 31
0.000000
  0
LINE
  8
21
 10
0.527165
 20
1.981890
 30
0.000000
 11
0.527165
 21
1.560630
 31
0.000000
  0
LINE
  8
21
 10
0.527165
 20
1.560630
 30
0.000000
 11
0.444488
 21
1.560630
 31
0.000000
  0
LINE
  8
21
 10
0.527165
 20
1.981890
 30
0.000000
 11
0.172835
 21
1.981890
 31
0.000000
  0
LINE
  8
21
 10
0.325000
 20
0.050000
 30
0.000000
 11
0.925000
 21
0.050000
 31
0.000000
  0
LINE
  8
21
 10
0.925000
 20
0.050000
 30
0.000000
 11
0.925000
 21
1.400000
 31
0.000000
  0
LINE
  8
21
 10
0.925000
 20
1.400000
 30
0.000000
 11
0.325000
 21
1.400000
 31
0.000000
  0
LINE
  8
21
 10
0.325000
 20
1.400000
 30
0.000000
 11
0.325000
 21
0.050000
 31
0.000000
  0
LINE
  8
21
 10
0.484000
 20
0.151000
 30
0.000000
 11
0.461981
 21
0.151000
 31
0.000000
  0
LINE
  8
21
 10
0.461981
 20
0.151000
 30
0.000000
 11
0.461981
 21
0.162009
 31
0.000000
  0
LINE
  8
21
 10
0.461981
 20
0.162009
 30
0.000000
 11
0.465651
 21
0.165679
 31
0.000000
  0
LINE
  8
21
 10
0.465651
 20
0.165679
 30
0.000000
 11
0.472991
 21
0.165679
 31
0.000000
  0
LINE
  8
21
 10
0.472991
 20
0.165679
 30
0.000000
 11
0.476660
 21
0.162009
 31
0.000000
  0
LINE
  8
21
 10
0.476660
 20
0.162009
 30
0.000000
 11
0.476660
 21
0.151000
 31
0.000000
  0
LINE
  8
21
 10
0.476660
 20
0.158340
 30
0.000000
 11
0.484000
 21
0.165679
 31
0.000000
  0
LINE
  8
21
 10
0.461981
 20
0.173099
 30
0.000000
 11
0.484000
 21
0.187778
 31
0.000000
  0
LINE
  8
21
 10
0.461981
 20
0.187778
 30
0.000000
 11
0.484000
 21
0.173099
 31
0.000000
  0
LINE
  8
21
 10
0.584000
 20
0.158340
 30
0.000000
 11
0.561981
 21
0.158340
 31
0.000000
  0
LINE
  8
21
 10
0.561981
 20
0.151000
 30
0.000000
 11
0.561981
 21
0.165679
 31
0.000000
  0
LINE
  8
21
 10
0.561981
 20
0.173099
 30
0.000000
 11
0.584000
 21
0.187778
 31
0.000000
  0
LINE
  8
21
 10
0.561981
 20
0.187778
 30
0.000000
 11
0.584000
 21
0.173099
 31
0.000000
  0
LINE
  8
21
 10
0.665651
 20
0.165679
 30
0.000000
 11
0.661981
 21
0.162009
 31
0.000000
  0
LINE
  8
21
 10
0.661981
 20
0.162009
 30
0.000000
 11
0.661981
 21
0.154670
 31
0.000000
  0
LINE
  8
21
 10
0.661981
 20
0.154670
 30
0.000000
 11
0.665651
 21
0.151000
 31
0.000000
  0
LINE
  8
21
 10
0.665651
 20
0.151000
 30
0.000000
 11
0.680330
 21
0.151000
 31
0.000000
  0
LINE
  8
21
 10
0.680330
 20
0.151000
 30
0.000000
 11
0.684000
 21
0.154670
 31
0.000000
  0
LINE
  8
21
 10
0.684000
 20
0.154670
 30
0.000000
 11
0.684000
 21
0.162009
 31
0.000000
  0
LINE
  8
21
 10
0.684000
 20
0.162009
 30
0.000000
 11
0.680330
 21
0.165679
 31
0.000000
  0
LINE
  8
21
 10
0.680330
 20
0.165679
 30
0.000000
 11
0.672991
 21
0.165679
 31
0.000000
  0
LINE
  8
21
 10
0.672991
 20
0.165679
 30
0.000000
 11
0.672991
 21
0.158340
 31
0.000000
  0
LINE
  8
21
 10
0.684000
 20
0.173099
 30
0.000000
 11
0.661981
 21
0.173099
 31
0.000000
  0
LINE
  8
21
 10
0.661981
 20
0.173099
 30
0.000000
 11
0.684000
 21
0.187778
 31
0.000000
  0
LINE
  8
21
 10
0.684000
 20
0.187778
 30
0.000000
 11
0.661981
 21
0.187778
 31
0.000000
  0
LINE
  8
21
 10
0.661981
 20
0.195198
 30
0.000000
 11
0.684000
 21
0.195198
 31
0.000000
  0
LINE
  8
21
 10
0.684000
 20
0.195198
 30
0.000000
 11
0.684000
 21
0.206207
 31
0.000000
  0
LINE
  8
21
 10
0.684000
 20
0.206207
 30
0.000000
 11
0.680330
 21
0.209877
 31
0.000000
  0
LINE
  8
21
 10
0.680330
 20
0.209877
 30
0.000000
 11
0.665651
 21
0.209877
 31
0.000000
  0
LINE
  8
21
 10
0.665651
 20
0.209877
 30
0.000000
 11
0.661981
 21
0.206207
 31
0.000000
  0
LINE
  8
21
 10
0.661981
 20
0.206207
 30
0.000000
 11
0.661981
 21
0.195198
 31
0.000000
  0
LINE
  8
21
 10
0.761981
 20
0.151000
 30
0.000000
 11
0.776660
 21
0.151000
 31
0.000000
  0
LINE
  8
21
 10
0.776660
 20
0.151000
 30
0.000000
 11
0.784000
 21
0.158340
 31
0.000000
  0
LINE
  8
21
 10
0.784000
 20
0.158340
 30
0.000000
 11
0.776660
 21
0.165679
 31
0.000000
  0
LINE
  8
21
 10
0.776660
 20
0.165679
 30
0.000000
 11
0.761981
 21
0.165679
 31
0.000000
  0
LINE
  8
21
 10
0.765651
 20
0.187778
 30
0.000000
 11
0.761981
 21
0.184108
 31
0.000000
  0
LINE
  8
21
 10
0.761981
 20
0.184108
 30
0.000000
 11
0.761981
 21
0.176769
 31
0.000000
  0
LINE
  8
21
 10
0.761981
 20
0.176769
 30
0.000000
 11
0.765651
 21
0.173099
 31
0.000000
  0
LINE
  8
21
 10
0.765651
 20
0.173099
 30
0.000000
 11
0.780330
 21
0.173099
 31
0.000000
  0
LINE
  8
21
 10
0.780330
 20
0.173099
 30
0.000000
 11
0.784000
 21
0.176769
 31
0.000000
  0
LINE
  8
21
 10
0.784000
 20
0.176769
 30
0.000000
 11
0.784000
 21
0.184108
 31
0.000000
  0
LINE
  8
21
 10
0.784000
 20
0.184108
 30
0.000000
 11
0.780330
 21
0.187778
 31
0.000000
  0
LINE
  8
21
 10
0.765651
 20
0.209877
 30
0.000000
 11
0.761981
 21
0.206207
 31
0.000000
  0
LINE
  8
21
 10
0.761981
 20
0.206207
 30
0.000000
 11
0.761981
 21
0.198867
 31
0.000000
  0
LINE
  8
21
 10
0.761981
 20
0.198867
 30
0.000000
 11
0.765651
 21
0.195198
 31
0.000000
  0
LINE
  8
21
 10
0.765651
 20
0.195198
 30
0.000000
 11
0.780330
 21
0.195198
 31
0.000000
  0
LINE
  8
21
 10
0.780330
 20
0.195198
 30
0.000000
 11
0.784000
 21
0.198867
 31
0.000000
  0
LINE
  8
21
 10
0.784000
 20
0.198867
 30
0.000000
 11
0.784000
 21
0.206207
 31
0.000000
  0
LINE
  8
21
 10
0.784000
 20
0.206207
 30
0.000000
 11
0.780330
 21
0.209877
 31
0.000000
  0
LINE
  8
21
 10
0.861981
 20
0.151000
 30
0.000000
 11
0.884000
 21
0.151000
 31
0.000000
  0
LINE
  8
21
 10
0.876660
 20
0.151000
 30
0.000000
 11
0.861981
 21
0.165679
 31
0.000000
  0
LINE
  8
21
 10
0.872991
 20
0.154670
 30
0.000000
 11
0.884000
 21
0.165679
 31
0.000000
  0
LINE
  8
21
 10
0.861981
 20
0.187778
 30
0.000000
 11
0.861981
 21
0.173099
 31
0.000000
  0
LINE
  8
21
 10
0.861981
 20
0.173099
 30
0.000000
 11
0.884000
 21
0.173099
 31
0.000000
  0
LINE
  8
21
 10
0.884000
 20
0.173099
 30
0.000000
 11
0.884000
 21
0.187778
 31
0.000000
  0
LINE
  8
21
 10
0.872991
 20
0.173099
 30
0.000000
 11
0.872991
 21
0.180438
 31
0.000000
  0
LINE
  8
21
 10
0.861981
 20
0.195198
 30
0.000000
 11
0.865651
 21
0.195198
 31
0.000000
  0
LINE
  8
21
 10
0.865651
 20
0.195198
 30
0.000000
 11
0.872991
 21
0.202537
 31
0.000000
  0
LINE
  8
21
 10
0.872991
 20
0.202537
 30
0.000000
 11
0.865651
 21
0.209877
 31
0.000000
  0
LINE
  8
21
 10
0.865651
 20
0.209877
 30
0.000000
 11
0.861981
 21
0.209877
 31
0.000000
  0
LINE
  8
21
 10
0.872991
 20
0.202537
 30
0.000000
 11
0.884000
 21
0.202537
 31
0.000000
  0
LINE
  8
21
 10
0.365651
 20
0.165679
 30
0.000000
 11
0.361981
 21
0.162009
 31
0.000000
  0
LINE
  8
21
 10
0.361981
 20
0.162009
 30
0.000000
 11
0.361981
 21
0.154670
 31
0.000000
  0
LINE
  8
21
 10
0.361981
 20
0.154670
 30
0.000000
 11
0.365651
 21
0.151000
 31
0.000000
  0
LINE
  8
21
 10
0.365651
 20
0.151000
 30
0.000000
 11
0.369321
 21
0.151000
 31
0.000000
  0
LINE
  8
21
 10
0.369321
 20
0.151000
 30
0.000000
 11
0.372991
 21
0.154670
 31
0.000000
  0
LINE
  8
21
 10
0.372991
 20
0.154670
 30
0.000000
 11
0.372991
 21
0.162009
 31
0.000000
  0
LINE
  8
21
 10
0.372991
 20
0.162009
 30
0.000000
 11
0.376660
 21
0.165679
 31
0.000000
  0
LINE
  8
21
 10
0.376660
 20
0.165679
 30
0.000000
 11
0.380330
 21
0.165679
 31
0.000000
  0
LINE
  8
21
 10
0.380330
 20
0.165679
 30
0.000000
 11
0.384000
 21
0.162009
 31
0.000000
  0
LINE
  8
21
 10
0.384000
 20
0.162009
 30
0.000000
 11
0.384000
 21
0.154670
 31
0.000000
  0
LINE
  8
21
 10
0.384000
 20
0.154670
 30
0.000000
 11
0.380330
 21
0.151000
 31
0.000000
  0
LINE
  8
21
 10
0.384000
 20
0.180438
 30
0.000000
 11
0.361981
 21
0.180438
 31
0.000000
  0
LINE
  8
21
 10
0.361981
 20
0.173099
 30
0.000000
 11
0.361981
 21
0.187778
 31
0.000000
  0
LINE
  8
21
 10
0.384000
 20
0.195198
 30
0.000000
 11
0.369321
 21
0.195198
 31
0.000000
  0
LINE
  8
21
 10
0.369321
 20
0.195198
 30
0.000000
 11
0.361981
 21
0.202537
 31
0.000000
  0
LINE
  8
21
 10
0.361981
 20
0.202537
 30
0.000000
 11
0.369321
 21
0.209877
 31
0.000000
  0
LINE
  8
21
 10
0.369321
 20
0.209877
 30
0.000000
 11
0.384000
 21
0.209877
 31
0.000000
  0
LINE
  8
21
 10
0.372991
 20
0.195198
 30
0.000000
 11
0.372991
 21
0.209877
 31
0.000000
  0
LINE
  8
21
 10
0.384000
 20
0.224636
 30
0.000000
 11
0.361981
 21
0.224636
 31
0.000000
  0
LINE
  8
21
 10
0.361981
 20
0.217296
 30
0.000000
 11
0.361981
 21
0.231976
 31
0.000000
  0
LINE
  8
21
 10
0.361981
 20
0.254074
 30
0.000000
 11
0.361981
 21
0.239395
 31
0.000000
  0
LINE
  8
21
 10
0.361981
 20
0.239395
 30
0.000000
 11
0.384000
 21
0.239395
 31
0.000000
  0
LINE
  8
21
 10
0.384000
 20
0.239395
 30
0.000000
 11
0.384000
 21
0.254074
 31
0.000000
  0
LINE
  8
21
 10
0.372991
 20
0.239395
 30
0.000000
 11
0.372991
 21
0.246735
 31
0.000000
  0
LINE
  8
21
 10
0.300000
 20
1.437500
 30
0.000000
 11
0.300000
 21
1.262500
 31
0.000000
  0
LINE
  8
21
 10
0.300000
 20
1.262500
 30
0.000000
 11
0.225000
 21
1.262500
 31
0.000000
  0
LINE
  8
21
 10
0.225000
 20
1.262500
 30
0.000000
 11
0.225000
 21
1.437500
 31
0.000000
  0
LINE
  8
21
 10
0.225000
 20
1.437500
 30
0.000000
 11
0.300000
 21
1.437500
 31
0.000000
  0
ARC
  8
21
 10
0.100000
 20
1.349999
 30
0.000000
 40
0.060000
 50
125.537354
 51
179.998691
  0
ARC
  8
21
 10
0.100000
 20
1.350000
 30
0.000000
 40
0.060000
 50
180.000000
 51
233.130102
  0
ARC
  8
21
 10
0.100000
 20
1.350000
 30
0.000000
 40
0.060000
 50
0.000307
 51
52.127183
  0
ARC
  8
21
 10
0.100000
 20
1.350000
 30
0.000000
 40
0.060000
 50
307.872817
 51
359.999693
  0
ARC
  8
21
 10
0.100000
 20
1.350000
 30
0.000000
 40
0.080000
 50
129.807234
 51
180.000342
  0
ARC
  8
21
 10
0.100000
 20
1.350002
 30
0.000000
 40
0.080000
 50
180.001692
 51
241.928641
  0
ARC
  8
21
 10
0.100000
 20
1.350001
 30
0.000000
 40
0.080000
 50
359.998944
 51
49.761966
  0
ARC
  8
21
 10
0.100000
 20
1.349998
 30
0.000000
 40
0.080000
 50
299.746365
 51
0.001580
  0
LINE
  8
21
 10
0.500000
 20
1.280000
 30
0.000000
 11
0.700000
 21
1.280000
 31
0.000000
  0
LINE
  8
21
 10
0.700000
 20
1.280000
 30
0.000000
 11
0.700000
 21
1.250000
 31
0.000000
  0
LINE
  8
21
 10
0.700000
 20
1.250000
 30
0.000000
 11
0.700000
 21
1.220000
 31
0.000000
  0
LINE
  8
21
 10
0.700000
 20
1.220000
 30
0.000000
 11
0.500000
 21
1.220000
 31
0.000000
  0
LINE
  8
21
 10
0.500000
 20
1.220000
 30
0.000000
 11
0.500000
 21
1.250000
 31
0.000000
  0
LINE
  8
21
 10
0.500000
 20
1.250000
 30
0.000000
 11
0.500000
 21
1.280000
 31
0.000000
  0
LINE
  8
21
 10
0.700000
 20
1.250000
 30
0.000000
 11
0.710000
 21
1.250000
 31
0.000000
  0
LINE
  8
21
 10
0.500000
 20
1.250000
 30
0.000000
 11
0.490000
 21
1.250000
 31
0.000000
  0
LINE
  8
21
 10
0.523000
 20
1.260686
 30
0.000000
 11
0.534343
 21
1.272029
 31
0.000000
  0
LINE
  8
21
 10
0.534343
 20
1.272029
 30
0.000000
 11
0.534343
 21
1.238000
 31
0.000000
  0
LINE
  8
21
 10
0.523000
 20
1.238000
 30
0.000000
 11
0.545686
 21
1.238000
 31
0.000000
  0
LINE
  8
21
 10
0.559831
 20
1.238000
 30
0.000000
 11
0.559831
 21
1.243672
 31
0.000000
  0
LINE
  8
21
 10
0.559831
 20
1.243672
 30
0.000000
 11
0.565503
 21
1.243672
 31
0.000000
  0
LINE
  8
21
 10
0.565503
 20
1.243672
 30
0.000000
 11
0.565503
 21
1.238000
 31
0.000000
  0
LINE
  8
21
 10
0.565503
 20
1.238000
 30
0.000000
 11
0.559831
 21
1.238000
 31
0.000000
  0
LINE
  8
21
 10
0.578247
 20
1.260686
 30
0.000000
 11
0.589590
 21
1.272029
 31
0.000000
  0
LINE
  8
21
 10
0.589590
 20
1.272029
 30
0.000000
 11
0.589590
 21
1.238000
 31
0.000000
  0
LINE
  8
21
 10
0.578247
 20
1.238000
 30
0.000000
 11
0.600933
 21
1.238000
 31
0.000000
  0
LINE
  8
21
 10
0.615079
 20
1.272029
 30
0.000000
 11
0.615079
 21
1.238000
 31
0.000000
  0
LINE
  8
21
 10
0.615079
 20
1.249343
 30
0.000000
 11
0.637765
 21
1.272029
 31
0.000000
  0
LINE
  8
21
 10
0.620750
 20
1.255015
 30
0.000000
 11
0.637765
 21
1.238000
 31
0.000000
  0
LINE
  8
21
 10
0.651910
 20
1.238000
 30
0.000000
 11
0.657582
 21
1.238000
 31
0.000000
  0
LINE
  8
21
 10
0.657582
 20
1.238000
 30
0.000000
 11
0.657582
 21
1.249343
 31
0.000000
  0
LINE
  8
21
 10
0.657582
 20
1.249343
 30
0.000000
 11
0.651910
 21
1.255015
 31
0.000000
  0
LINE
  8
21
 10
0.651910
 20
1.255015
 30
0.000000
 11
0.651910
 21
1.266358
 31
0.000000
  0
LINE
  8
21
 10
0.651910
 20
1.266358
 30
0.000000
 11
0.657582
 21
1.272029
 31
0.000000
  0
LINE
  8
21
 10
0.657582
 20
1.272029
 30
0.000000
 11
0.668925
 21
1.272029
 31
0.000000
  0
LINE
  8
21
 10
0.668925
 20
1.272029
 30
0.000000
 11
0.674596
 21
1.266358
 31
0.000000
  0
LINE
  8
21
 10
0.674596
 20
1.266358
 30
0.000000
 11
0.674596
 21
1.255015
 31
0.000000
  0
LINE
  8
21
 10
0.674596
 20
1.255015
 30
0.000000
 11
0.668925
 21
1.249343
 31
0.000000
  0
LINE
  8
21
 10
0.668925
 20
1.249343
 30
0.000000
 11
0.668925
 21
1.238000
 31
0.000000
  0
LINE
  8
21
 10
0.668925
 20
1.238000
 30
0.000000
 11
0.674596
 21
1.238000
 31
0.000000
  0
LINE
  8
21
 10
0.500000
 20
0.480000
 30
0.000000
 11
0.700000
 21
0.480000
 31
0.000000
  0
LINE
  8
21
 10
0.700000
 20
0.480000
 30
0.000000
 11
0.700000
 21
0.450000
 31
0.000000
  0
LINE
  8
21
 10
0.700000
 20
0.450000
 30
0.000000
 11
0.700000
 21
0.420000
 31
0.000000
  0
LINE
  8
21
 10
0.700000
 20
0.420000
 30
0.000000
 11
0.500000
 21
0.420000
 31
0.000000
  0
LINE
  8
21
 10
0.500000
 20
0.420000
 30
0.000000
 11
0.500000
 21
0.450000
 31
0.000000
  0
LINE
  8
21
 10
0.500000
 20
0.450000
 30
0.000000
 11
0.500000
 21
0.480000
 31
0.000000
  0
LINE
  8
21
 10
0.700000
 20
0.450000
 30
0.000000
 11
0.710000
 21
0.450000
 31
0.000000
  0
LINE
  8
21
 10
0.500000
 20
0.450000
 30
0.000000
 11
0.490000
 21
0.450000
 31
0.000000
  0
LINE
  8
21
 10
0.523000
 20
0.460686
 30
0.000000
 11
0.534343
 21
0.472029
 31
0.000000
  0
LINE
  8
21
 10
0.534343
 20
0.472029
 30
0.000000
 11
0.534343
 21
0.438000
 31
0.000000
  0
LINE
  8
21
 10
0.523000
 20
0.438000
 30
0.000000
 11
0.545686
 21
0.438000
 31
0.000000
  0
LINE
  8
21
 10
0.559831
 20
0.443672
 30
0.000000
 11
0.559831
 21
0.466358
 31
0.000000
  0
LINE
  8
21
 10
0.559831
 20
0.466358
 30
0.000000
 11
0.565503
 21
0.472029
 31
0.000000
  0
LINE
  8
21
 10
0.565503
 20
0.472029
 30
0.000000
 11
0.576846
 21
0.472029
 31
0.000000
  0
LINE
  8
21
 10
0.576846
 20
0.472029
 30
0.000000
 11
0.582517
 21
0.466358
 31
0.000000
  0
LINE
  8
21
 10
0.582517
 20
0.466358
 30
0.000000
 11
0.582517
 21
0.443672
 31
0.000000
  0
LINE
  8
21
 10
0.582517
 20
0.443672
 30
0.000000
 11
0.576846
 21
0.438000
 31
0.000000
  0
LINE
  8
21
 10
0.576846
 20
0.438000
 30
0.000000
 11
0.565503
 21
0.438000
 31
0.000000
  0
LINE
  8
21
 10
0.565503
 20
0.438000
 30
0.000000
 11
0.559831
 21
0.443672
 31
0.000000
  0
LINE
  8
21
 10
0.559831
 20
0.443672
 30
0.000000
 11
0.582517
 21
0.466358
 31
0.000000
  0
LINE
  8
21
 10
0.596663
 20
0.472029
 30
0.000000
 11
0.596663
 21
0.438000
 31
0.000000
  0
LINE
  8
21
 10
0.596663
 20
0.449343
 30
0.000000
 11
0.619349
 21
0.472029
 31
0.000000
  0
LINE
  8
21
 10
0.602334
 20
0.455015
 30
0.000000
 11
0.619349
 21
0.438000
 31
0.000000
  0
LINE
  8
21
 10
0.633494
 20
0.438000
 30
0.000000
 11
0.639166
 21
0.438000
 31
0.000000
  0
LINE
  8
21
 10
0.639166
 20
0.438000
 30
0.000000
 11
0.639166
 21
0.449343
 31
0.000000
  0
LINE
  8
21
 10
0.639166
 20
0.449343
 30
0.000000
 11
0.633494
 21
0.455015
 31
0.000000
  0
LINE
  8
21
 10
0.633494
 20
0.455015
 30
0.000000
 11
0.633494
 21
0.466358
 31
0.000000
  0
LINE
  8
21
 10
0.633494
 20
0.466358
 30
0.000000
 11
0.639166
 21
0.472029
 31
0.000000
  0
LINE
  8
21
 10
0.639166
 20
0.472029
 30
0.000000
 11
0.650509
 21
0.472029
 31
0.000000
  0
LINE
  8
21
 10
0.650509
 20
0.472029
 30
0.000000
 11
0.656180
 21
0.466358
 31
0.000000
  0
LINE
  8
21
 10
0.656180
 20
0.466358
 30
0.000000
 11
0.656180
 21
0.455015
 31
0.000000
  0
LINE
  8
21
 10
0.656180
 20
0.455015
 30
0.000000
 11
0.650509
 21
0.449343
 31
0.000000
  0
LINE
  8
21
 10
0.650509
 20
0.449343
 30
0.000000
 11
0.650509
 21
0.438000
 31
0.000000
  0
LINE
  8
21
 10
0.650509
 20
0.438000
 30
0.000000
 11
0.656180
 21
0.438000
 31
0.000000
  0
LINE
  8
21
 10
0.500000
 20
0.380000
 30
0.000000
 11
0.700000
 21
0.380000
 31
0.000000
  0
LINE
  8
21
 10
0.700000
 20
0.380000
 30
0.000000
 11
0.700000
 21
0.350000
 31
0.000000
  0
LINE
  8
21
 10
0.700000
 20
0.350000
 30
0.000000
 11
0.700000
 21
0.320000
 31
0.000000
  0
LINE
  8
21
 10
0.700000
 20
0.320000
 30
0.000000
 11
0.500000
 21
0.320000
 31
0.000000
  0
LINE
  8
21
 10
0.500000
 20
0.320000
 30
0.000000
 11
0.500000
 21
0.350000
 31
0.000000
  0
LINE
  8
21
 10
0.500000
 20
0.350000
 30
0.000000
 11
0.500000
 21
0.380000
 31
0.000000
  0
LINE
  8
21
 10
0.700000
 20
0.350000
 30
0.000000
 11
0.710000
 21
0.350000
 31
0.000000
  0
LINE
  8
21
 10
0.500000
 20
0.350000
 30
0.000000
 11
0.490000
 21
0.350000
 31
0.000000
  0
LINE
  8
21
 10
0.523000
 20
0.360686
 30
0.000000
 11
0.534343
 21
0.372029
 31
0.000000
  0
LINE
  8
21
 10
0.534343
 20
0.372029
 30
0.000000
 11
0.534343
 21
0.338000
 31
0.000000
  0
LINE
  8
21
 10
0.523000
 20
0.338000
 30
0.000000
 11
0.545686
 21
0.338000
 31
0.000000
  0
LINE
  8
21
 10
0.559831
 20
0.343672
 30
0.000000
 11
0.559831
 21
0.366358
 31
0.000000
  0
LINE
  8
21
 10
0.559831
 20
0.366358
 30
0.000000
 11
0.565503
 21
0.372029
 31
0.000000
  0
LINE
  8
21
 10
0.565503
 20
0.372029
 30
0.000000
 11
0.576846
 21
0.372029
 31
0.000000
  0
LINE
  8
21
 10
0.576846
 20
0.372029
 30
0.000000
 11
0.582517
 21
0.366358
 31
0.000000
  0
LINE
  8
21
 10
0.582517
 20
0.366358
 30
0.000000
 11
0.582517
 21
0.343672
 31
0.000000
  0
LINE
  8
21
 10
0.582517
 20
0.343672
 30
0.000000
 11
0.576846
 21
0.338000
 31
0.000000
  0
LINE
  8
21
 10
0.576846
 20
0.338000
 30
0.000000
 11
0.565503
 21
0.338000
 31
0.000000
  0
LINE
  8
21
 10
0.565503
 20
0.338000
 30
0.000000
 11
0.559831
 21
0.343672
 31
0.000000
  0
LINE
  8
21
 10
0.559831
 20
0.343672
 30
0.000000
 11
0.582517
 21
0.366358
 31
0.000000
  0
LINE
  8
21
 10
0.596663
 20
0.343672
 30
0.000000
 11
0.596663
 21
0.366358
 31
0.000000
  0
LINE
  8
21
 10
0.596663
 20
0.366358
 30
0.000000
 11
0.602334
 21
0.372029
 31
0.000000
  0
LINE
  8
21
 10
0.602334
 20
0.372029
 30
0.000000
 11
0.613677
 21
0.372029
 31
0.000000
  0
LINE
  8
21
 10
0.613677
 20
0.372029
 30
0.000000
 11
0.619349
 21
0.366358
 31
0.000000
  0
LINE
  8
21
 10
0.619349
 20
0.366358
 30
0.000000
 11
0.619349
 21
0.343672
 31
0.000000
  0
LINE
  8
21
 10
0.619349
 20
0.343672
 30
0.000000
 11
0.613677
 21
0.338000
 31
0.000000
  0
LINE
  8
21
 10
0.613677
 20
0.338000
 30
0.000000
 11
0.602334
 21
0.338000
 31
0.000000
  0
LINE
  8
21
 10
0.602334
 20
0.338000
 30
0.000000
 11
0.596663
 21
0.343672
 31
0.000000
  0
LINE
  8
21
 10
0.596663
 20
0.343672
 30
0.000000
 11
0.619349
 21
0.366358
 31
0.000000
  0
LINE
  8
21
 10
0.633494
 20
0.338000
 30
0.000000
 11
0.639166
 21
0.338000
 31
0.000000
  0
LINE
  8
21
 10
0.639166
 20
0.338000
 30
0.000000
 11
0.639166
 21
0.349343
 31
0.000000
  0
LINE
  8
21
 10
0.639166
 20
0.349343
 30
0.000000
 11
0.633494
 21
0.355015
 31
0.000000
  0
LINE
  8
21
 10
0.633494
 20
0.355015
 30
0.000000
 11
0.633494
 21
0.366358
 31
0.000000
  0
LINE
  8
21
 10
0.633494
 20
0.366358
 30
0.000000
 11
0.639166
 21
0.372029
 31
0.000000
  0
LINE
  8
21
 10
0.639166
 20
0.372029
 30
0.000000
 11
0.650509
 21
0.372029
 31
0.000000
  0
LINE
  8
21
 10
0.650509
 20
0.372029
 30
0.000000
 11
0.656180
 21
0.366358
 31
0.000000
  0
LINE
  8
21
 10
0.656180
 20
0.366358
 30
0.000000
 11
0.656180
 21
0.355015
 31
0.000000
  0
LINE
  8
21
 10
0.656180
 20
0.355015
 30
0.000000
 11
0.650509
 21
0.349343
 31
0.000000
  0
LINE
  8
21
 10
0.650509
 20
0.349343
 30
0.000000
 11
0.650509
 21
0.338000
 31
0.000000
  0
LINE
  8
21
 10
0.650509
 20
0.338000
 30
0.000000
 11
0.656180
 21
0.338000
 31
0.000000
  0
LINE
  8
21
 10
0.500000
 20
0.280000
 30
0.000000
 11
0.700000
 21
0.280000
 31
0.000000
  0
LINE
  8
21
 10
0.700000
 20
0.280000
 30
0.000000
 11
0.700000
 21
0.250000
 31
0.000000
  0
LINE
  8
21
 10
0.700000
 20
0.250000
 30
0.000000
 11
0.700000
 21
0.220000
 31
0.000000
  0
LINE
  8
21
 10
0.700000
 20
0.220000
 30
0.000000
 11
0.500000
 21
0.220000
 31
0.000000
  0
LINE
  8
21
 10
0.500000
 20
0.220000
 30
0.000000
 11
0.500000
 21
0.250000
 31
0.000000
  0
LINE
  8
21
 10
0.500000
 20
0.250000
 30
0.000000
 11
0.500000
 21
0.280000
 31
0.000000
  0
LINE
  8
21
 10
0.700000
 20
0.250000
 30
0.000000
 11
0.710000
 21
0.250000
 31
0.000000
  0
LINE
  8
21
 10
0.500000
 20
0.250000
 30
0.000000
 11
0.490000
 21
0.250000
 31
0.000000
  0
LINE
  8
21
 10
0.523000
 20
0.260686
 30
0.000000
 11
0.534343
 21
0.272029
 31
0.000000
  0
LINE
  8
21
 10
0.534343
 20
0.272029
 30
0.000000
 11
0.534343
 21
0.238000
 31
0.000000
  0
LINE
  8
21
 10
0.523000
 20
0.238000
 30
0.000000
 11
0.545686
 21
0.238000
 31
0.000000
  0
LINE
  8
21
 10
0.559831
 20
0.243672
 30
0.000000
 11
0.559831
 21
0.266358
 31
0.000000
  0
LINE
  8
21
 10
0.559831
 20
0.266358
 30
0.000000
 11
0.565503
 21
0.272029
 31
0.000000
  0
LINE
  8
21
 10
0.565503
 20
0.272029
 30
0.000000
 11
0.576846
 21
0.272029
 31
0.000000
  0
LINE
  8
21
 10
0.576846
 20
0.272029
 30
0.000000
 11
0.582517
 21
0.266358
 31
0.000000
  0
LINE
  8
21
 10
0.582517
 20
0.266358
 30
0.000000
 11
0.582517
 21
0.243672
 31
0.000000
  0
LINE
  8
21
 10
0.582517
 20
0.243672
 30
0.000000
 11
0.576846
 21
0.238000
 31
0.000000
  0
LINE
  8
21
 10
0.576846
 20
0.238000
 30
0.000000
 11
0.565503
 21
0.238000
 31
0.000000
  0
LINE
  8
21
 10
0.565503
 20
0.238000
 30
0.000000
 11
0.559831
 21
0.243672
 31
0.000000
  0
LINE
  8
21
 10
0.559831
 20
0.243672
 30
0.000000
 11
0.582517
 21
0.266358
 31
0.000000
  0
LINE
  8
21
 10
0.596663
 20
0.272029
 30
0.000000
 11
0.596663
 21
0.238000
 31
0.000000
  0
LINE
  8
21
 10
0.596663
 20
0.249343
 30
0.000000
 11
0.619349
 21
0.272029
 31
0.000000
  0
LINE
  8
21
 10
0.602334
 20
0.255015
 30
0.000000
 11
0.619349
 21
0.238000
 31
0.000000
  0
LINE
  8
21
 10
0.633494
 20
0.238000
 30
0.000000
 11
0.639166
 21
0.238000
 31
0.000000
  0
LINE
  8
21
 10
0.639166
 20
0.238000
 30
0.000000
 11
0.639166
 21
0.249343
 31
0.000000
  0
LINE
  8
21
 10
0.639166
 20
0.249343
 30
0.000000
 11
0.633494
 21
0.255015
 31
0.000000
  0
LINE
  8
21
 10
0.633494
 20
0.255015
 30
0.000000
 11
0.633494
 21
0.266358
 31
0.000000
  0
LINE
  8
21
 10
0.633494
 20
0.266358
 30
0.000000
 11
0.639166
 21
0.272029
 31
0.000000
  0
LINE
  8
21
 10
0.639166
 20
0.272029
 30
0.000000
 11
0.650509
 21
0.272029
 31
0.000000
  0
LINE
  8
21
 10
0.650509
 20
0.272029
 30
0.000000
 11
0.656180
 21
0.266358
 31
0.000000
  0
LINE
  8
21
 10
0.656180
 20
0.266358
 30
0.000000
 11
0.656180
 21
0.255015
 31
0.000000
  0
LINE
  8
21
 10
0.656180
 20
0.255015
 30
0.000000
 11
0.650509
 21
0.249343
 31
0.000000
  0
LINE
  8
21
 10
0.650509
 20
0.249343
 30
0.000000
 11
0.650509
 21
0.238000
 31
0.000000
  0
LINE
  8
21
 10
0.650509
 20
0.238000
 30
0.000000
 11
0.656180
 21
0.238000
 31
0.000000
  0
LINE
  8
21
 10
0.700000
 20
1.120000
 30
0.000000
 11
0.500000
 21
1.120000
 31
0.000000
  0
LINE
  8
21
 10
0.500000
 20
1.120000
 30
0.000000
 11
0.500000
 21
1.150000
 31
0.000000
  0
LINE
  8
21
 10
0.500000
 20
1.150000
 30
0.000000
 11
0.500000
 21
1.180000
 31
0.000000
  0
LINE
  8
21
 10
0.500000
 20
1.180000
 30
0.000000
 11
0.700000
 21
1.180000
 31
0.000000
  0
LINE
  8
21
 10
0.700000
 20
1.180000
 30
0.000000
 11
0.700000
 21
1.150000
 31
0.000000
  0
LINE
  8
21
 10
0.700000
 20
1.150000
 30
0.000000
 11
0.700000
 21
1.120000
 31
0.000000
  0
LINE
  8
21
 10
0.500000
 20
1.150000
 30
0.000000
 11
0.490000
 21
1.150000
 31
0.000000
  0
LINE
  8
21
 10
0.700000
 20
1.150000
 30
0.000000
 11
0.710000
 21
1.150000
 31
0.000000
  0
LINE
  8
21
 10
0.535674
 20
1.150686
 30
0.000000
 11
0.547017
 21
1.162029
 31
0.000000
  0
LINE
  8
21
 10
0.547017
 20
1.162029
 30
0.000000
 11
0.547017
 21
1.128000
 31
0.000000
  0
LINE
  8
21
 10
0.535674
 20
1.128000
 30
0.000000
 11
0.558360
 21
1.128000
 31
0.000000
  0
LINE
  8
21
 10
0.572506
 20
1.133672
 30
0.000000
 11
0.572506
 21
1.156358
 31
0.000000
  0
LINE
  8
21
 10
0.572506
 20
1.156358
 30
0.000000
 11
0.578177
 21
1.162029
 31
0.000000
  0
LINE
  8
21
 10
0.578177
 20
1.162029
 30
0.000000
 11
0.589520
 21
1.162029
 31
0.000000
  0
LINE
  8
21
 10
0.589520
 20
1.162029
 30
0.000000
 11
0.595192
 21
1.156358
 31
0.000000
  0
LINE
  8
21
 10
0.595192
 20
1.156358
 30
0.000000
 11
0.595192
 21
1.133672
 31
0.000000
  0
LINE
  8
21
 10
0.595192
 20
1.133672
 30
0.000000
 11
0.589520
 21
1.128000
 31
0.000000
  0
LINE
  8
21
 10
0.589520
 20
1.128000
 30
0.000000
 11
0.578177
 21
1.128000
 31
0.000000
  0
LINE
  8
21
 10
0.578177
 20
1.128000
 30
0.000000
 11
0.572506
 21
1.133672
 31
0.000000
  0
LINE
  8
21
 10
0.572506
 20
1.133672
 30
0.000000
 11
0.595192
 21
1.156358
 31
0.000000
  0
LINE
  8
21
 10
0.609337
 20
1.162029
 30
0.000000
 11
0.609337
 21
1.128000
 31
0.000000
  0
LINE
  8
21
 10
0.609337
 20
1.139343
 30
0.000000
 11
0.632023
 21
1.162029
 31
0.000000
  0
LINE
  8
21
 10
0.615008
 20
1.145015
 30
0.000000
 11
0.632023
 21
1.128000
 31
0.000000
  0
LINE
  8
21
 10
0.646168
 20
1.128000
 30
0.000000
 11
0.651840
 21
1.128000
 31
0.000000
  0
LINE
  8
21
 10
0.651840
 20
1.128000
 30
0.000000
 11
0.651840
 21
1.139343
 31
0.000000
  0
LINE
  8
21
 10
0.651840
 20
1.139343
 30
0.000000
 11
0.646168
 21
1.145015
 31
0.000000
  0
LINE
  8
21
 10
0.646168
 20
1.145015
 30
0.000000
 11
0.646168
 21
1.156358
 31
0.000000
  0
LINE
  8
21
 10
0.646168
 20
1.156358
 30
0.000000
 11
0.651840
 21
1.162029
 31
0.000000
  0
LINE
  8
21
 10
0.651840
 20
1.162029
 30
0.000000
 11
0.663183
 21
1.162029
 31
0.000000
  0
LINE
  8
21
 10
0.663183
 20
1.162029
 30
0.000000
 11
0.668854
 21
1.156358
 31
0.000000
  0
LINE
  8
21
 10
0.668854
 20
1.156358
 30
0.000000
 11
0.668854
 21
1.145015
 31
0.000000
  0
LINE
  8
21
 10
0.668854
 20
1.145015
 30
0.000000
 11
0.663183
 21
1.139343
 31
0.000000
  0
LINE
  8
21
 10
0.663183
 20
1.139343
 30
0.000000
 11
0.663183
 21
1.128000
 31
0.000000
  0
LINE
  8
21
 10
0.663183
 20
1.128000
 30
0.000000
 11
0.668854
 21
1.128000
 31
0.000000
  0
LINE
  8
21
 10
0.700000
 20
1.020000
 30
0.000000
 11
0.500000
 21
1.020000
 31
0.000000
  0
LINE
  8
21
 10
0.500000
 20
1.020000
 30
0.000000
 11
0.500000
 21
1.050000
 31
0.000000
  0
LINE
  8
21
 10
0.500000
 20
1.050000
 30
0.000000
 11
0.500000
 21
1.080000
 31
0.000000
  0
LINE
  8
21
 10
0.500000
 20
1.080000
 30
0.000000
 11
0.700000
 21
1.080000
 31
0.000000
  0
LINE
  8
21
 10
0.700000
 20
1.080000
 30
0.000000
 11
0.700000
 21
1.050000
 31
0.000000
  0
LINE
  8
21
 10
0.700000
 20
1.050000
 30
0.000000
 11
0.700000
 21
1.020000
 31
0.000000
  0
LINE
  8
21
 10
0.500000
 20
1.050000
 30
0.000000
 11
0.490000
 21
1.050000
 31
0.000000
  0
LINE
  8
21
 10
0.700000
 20
1.050000
 30
0.000000
 11
0.710000
 21
1.050000
 31
0.000000
  0
LINE
  8
21
 10
0.535674
 20
1.050686
 30
0.000000
 11
0.547017
 21
1.062029
 31
0.000000
  0
LINE
  8
21
 10
0.547017
 20
1.062029
 30
0.000000
 11
0.547017
 21
1.028000
 31
0.000000
  0
LINE
  8
21
 10
0.535674
 20
1.028000
 30
0.000000
 11
0.558360
 21
1.028000
 31
0.000000
  0
LINE
  8
21
 10
0.572506
 20
1.033672
 30
0.000000
 11
0.572506
 21
1.056358
 31
0.000000
  0
LINE
  8
21
 10
0.572506
 20
1.056358
 30
0.000000
 11
0.578177
 21
1.062029
 31
0.000000
  0
LINE
  8
21
 10
0.578177
 20
1.062029
 30
0.000000
 11
0.589520
 21
1.062029
 31
0.000000
  0
LINE
  8
21
 10
0.589520
 20
1.062029
 30
0.000000
 11
0.595192
 21
1.056358
 31
0.000000
  0
LINE
  8
21
 10
0.595192
 20
1.056358
 30
0.000000
 11
0.595192
 21
1.033672
 31
0.000000
  0
LINE
  8
21
 10
0.595192
 20
1.033672
 30
0.000000
 11
0.589520
 21
1.028000
 31
0.000000
  0
LINE
  8
21
 10
0.589520
 20
1.028000
 30
0.000000
 11
0.578177
 21
1.028000
 31
0.000000
  0
LINE
  8
21
 10
0.578177
 20
1.028000
 30
0.000000
 11
0.572506
 21
1.033672
 31
0.000000
  0
LINE
  8
21
 10
0.572506
 20
1.033672
 30
0.000000
 11
0.595192
 21
1.056358
 31
0.000000
  0
LINE
  8
21
 10
0.609337
 20
1.033672
 30
0.000000
 11
0.609337
 21
1.056358
 31
0.000000
  0
LINE
  8
21
 10
0.609337
 20
1.056358
 30
0.000000
 11
0.615008
 21
1.062029
 31
0.000000
  0
LINE
  8
21
 10
0.615008
 20
1.062029
 30
0.000000
 11
0.626352
 21
1.062029
 31
0.000000
  0
LINE
  8
21
 10
0.626352
 20
1.062029
 30
0.000000
 11
0.632023
 21
1.056358
 31
0.000000
  0
LINE
  8
21
 10
0.632023
 20
1.056358
 30
0.000000
 11
0.632023
 21
1.033672
 31
0.000000
  0
LINE
  8
21
 10
0.632023
 20
1.033672
 30
0.000000
 11
0.626352
 21
1.028000
 31
0.000000
  0
LINE
  8
21
 10
0.626352
 20
1.028000
 30
0.000000
 11
0.615008
 21
1.028000
 31
0.000000
  0
LINE
  8
21
 10
0.615008
 20
1.028000
 30
0.000000
 11
0.609337
 21
1.033672
 31
0.000000
  0
LINE
  8
21
 10
0.609337
 20
1.033672
 30
0.000000
 11
0.632023
 21
1.056358
 31
0.000000
  0
LINE
  8
21
 10
0.646168
 20
1.028000
 30
0.000000
 11
0.651840
 21
1.028000
 31
0.000000
  0
LINE
  8
21
 10
0.651840
 20
1.028000
 30
0.000000
 11
0.651840
 21
1.039343
 31
0.000000
  0
LINE
  8
21
 10
0.651840
 20
1.039343
 30
0.000000
 11
0.646168
 21
1.045015
 31
0.000000
  0
LINE
  8
21
 10
0.646168
 20
1.045015
 30
0.000000
 11
0.646168
 21
1.056358
 31
0.000000
  0
LINE
  8
21
 10
0.646168
 20
1.056358
 30
0.000000
 11
0.651840
 21
1.062029
 31
0.000000
  0
LINE
  8
21
 10
0.651840
 20
1.062029
 30
0.000000
 11
0.663183
 21
1.062029
 31
0.000000
  0
LINE
  8
21
 10
0.663183
 20
1.062029
 30
0.000000
 11
0.668854
 21
1.056358
 31
0.000000
  0
LINE
  8
21
 10
0.668854
 20
1.056358
 30
0.000000
 11
0.668854
 21
1.045015
 31
0.000000
  0
LINE
  8
21
 10
0.668854
 20
1.045015
 30
0.000000
 11
0.663183
 21
1.039343
 31
0.000000
  0
LINE
  8
21
 10
0.663183
 20
1.039343
 30
0.000000
 11
0.663183
 21
1.028000
 31
0.000000
  0
LINE
  8
21
 10
0.663183
 20
1.028000
 30
0.000000
 11
0.668854
 21
1.028000
 31
0.000000
  0
LINE
  8
21
 10
0.700000
 20
0.920000
 30
0.000000
 11
0.500000
 21
0.920000
 31
0.000000
  0
LINE
  8
21
 10
0.500000
 20
0.920000
 30
0.000000
 11
0.500000
 21
0.950000
 31
0.000000
  0
LINE
  8
21
 10
0.500000
 20
0.950000
 30
0.000000
 11
0.500000
 21
0.980000
 31
0.000000
  0
LINE
  8
21
 10
0.500000
 20
0.980000
 30
0.000000
 11
0.700000
 21
0.980000
 31
0.000000
  0
LINE
  8
21
 10
0.700000
 20
0.980000
 30
0.000000
 11
0.700000
 21
0.950000
 31
0.000000
  0
LINE
  8
21
 10
0.700000
 20
0.950000
 30
0.000000
 11
0.700000
 21
0.920000
 31
0.000000
  0
LINE
  8
21
 10
0.500000
 20
0.950000
 30
0.000000
 11
0.490000
 21
0.950000
 31
0.000000
  0
LINE
  8
21
 10
0.700000
 20
0.950000
 30
0.000000
 11
0.710000
 21
0.950000
 31
0.000000
  0
LINE
  8
21
 10
0.535674
 20
0.950686
 30
0.000000
 11
0.547017
 21
0.962029
 31
0.000000
  0
LINE
  8
21
 10
0.547017
 20
0.962029
 30
0.000000
 11
0.547017
 21
0.928000
 31
0.000000
  0
LINE
  8
21
 10
0.535674
 20
0.928000
 30
0.000000
 11
0.558360
 21
0.928000
 31
0.000000
  0
LINE
  8
21
 10
0.572506
 20
0.933672
 30
0.000000
 11
0.572506
 21
0.956358
 31
0.000000
  0
LINE
  8
21
 10
0.572506
 20
0.956358
 30
0.000000
 11
0.578177
 21
0.962029
 31
0.000000
  0
LINE
  8
21
 10
0.578177
 20
0.962029
 30
0.000000
 11
0.589520
 21
0.962029
 31
0.000000
  0
LINE
  8
21
 10
0.589520
 20
0.962029
 30
0.000000
 11
0.595192
 21
0.956358
 31
0.000000
  0
LINE
  8
21
 10
0.595192
 20
0.956358
 30
0.000000
 11
0.595192
 21
0.933672
 31
0.000000
  0
LINE
  8
21
 10
0.595192
 20
0.933672
 30
0.000000
 11
0.589520
 21
0.928000
 31
0.000000
  0
LINE
  8
21
 10
0.589520
 20
0.928000
 30
0.000000
 11
0.578177
 21
0.928000
 31
0.000000
  0
LINE
  8
21
 10
0.578177
 20
0.928000
 30
0.000000
 11
0.572506
 21
0.933672
 31
0.000000
  0
LINE
  8
21
 10
0.572506
 20
0.933672
 30
0.000000
 11
0.595192
 21
0.956358
 31
0.000000
  0
LINE
  8
21
 10
0.609337
 20
0.962029
 30
0.000000
 11
0.609337
 21
0.928000
 31
0.000000
  0
LINE
  8
21
 10
0.609337
 20
0.939343
 30
0.000000
 11
0.632023
 21
0.962029
 31
0.000000
  0
LINE
  8
21
 10
0.615008
 20
0.945015
 30
0.000000
 11
0.632023
 21
0.928000
 31
0.000000
  0
LINE
  8
21
 10
0.646168
 20
0.928000
 30
0.000000
 11
0.651840
 21
0.928000
 31
0.000000
  0
LINE
  8
21
 10
0.651840
 20
0.928000
 30
0.000000
 11
0.651840
 21
0.939343
 31
0.000000
  0
LINE
  8
21
 10
0.651840
 20
0.939343
 30
0.000000
 11
0.646168
 21
0.945015
 31
0.000000
  0
LINE
  8
21
 10
0.646168
 20
0.945015
 30
0.000000
 11
0.646168
 21
0.956358
 31
0.000000
  0
LINE
  8
21
 10
0.646168
 20
0.956358
 30
0.000000
 11
0.651840
 21
0.962029
 31
0.000000
  0
LINE
  8
21
 10
0.651840
 20
0.962029
 30
0.000000
 11
0.663183
 21
0.962029
 31
0.000000
  0
LINE
  8
21
 10
0.663183
 20
0.962029
 30
0.000000
 11
0.668854
 21
0.956358
 31
0.000000
  0
LINE
  8
21
 10
0.668854
 20
0.956358
 30
0.000000
 11
0.668854
 21
0.945015
 31
0.000000
  0
LINE
  8
21
 10
0.668854
 20
0.945015
 30
0.000000
 11
0.663183
 21
0.939343
 31
0.000000
  0
LINE
  8
21
 10
0.663183
 20
0.939343
 30
0.000000
 11
0.663183
 21
0.928000
 31
0.000000
  0
LINE
  8
21
 10
0.663183
 20
0.928000
 30
0.000000
 11
0.668854
 21
0.928000
 31
0.000000
  0
LINE
  8
21
 10
0.700000
 20
0.770000
 30
0.000000
 11
0.500000
 21
0.770000
 31
0.000000
  0
LINE
  8
21
 10
0.500000
 20
0.770000
 30
0.000000
 11
0.500000
 21
0.800000
 31
0.000000
  0
LINE
  8
21
 10
0.500000
 20
0.800000
 30
0.000000
 11
0.500000
 21
0.830000
 31
0.000000
  0
LINE
  8
21
 10
0.500000
 20
0.830000
 30
0.000000
 11
0.700000
 21
0.830000
 31
0.000000
  0
LINE
  8
21
 10
0.700000
 20
0.830000
 30
0.000000
 11
0.700000
 21
0.800000
 31
0.000000
  0
LINE
  8
21
 10
0.700000
 20
0.800000
 30
0.000000
 11
0.700000
 21
0.770000
 31
0.000000
  0
LINE
  8
21
 10
0.500000
 20
0.800000
 30
0.000000
 11
0.490000
 21
0.800000
 31
0.000000
  0
LINE
  8
21
 10
0.700000
 20
0.800000
 30
0.000000
 11
0.710000
 21
0.800000
 31
0.000000
  0
LINE
  8
21
 10
0.535674
 20
0.800686
 30
0.000000
 11
0.547017
 21
0.812029
 31
0.000000
  0
LINE
  8
21
 10
0.547017
 20
0.812029
 30
0.000000
 11
0.547017
 21
0.778000
 31
0.000000
  0
LINE
  8
21
 10
0.535674
 20
0.778000
 30
0.000000
 11
0.558360
 21
0.778000
 31
0.000000
  0
LINE
  8
21
 10
0.572506
 20
0.783672
 30
0.000000
 11
0.572506
 21
0.806358
 31
0.000000
  0
LINE
  8
21
 10
0.572506
 20
0.806358
 30
0.000000
 11
0.578177
 21
0.812029
 31
0.000000
  0
LINE
  8
21
 10
0.578177
 20
0.812029
 30
0.000000
 11
0.589520
 21
0.812029
 31
0.000000
  0
LINE
  8
21
 10
0.589520
 20
0.812029
 30
0.000000
 11
0.595192
 21
0.806358
 31
0.000000
  0
LINE
  8
21
 10
0.595192
 20
0.806358
 30
0.000000
 11
0.595192
 21
0.783672
 31
0.000000
  0
LINE
  8
21
 10
0.595192
 20
0.783672
 30
0.000000
 11
0.589520
 21
0.778000
 31
0.000000
  0
LINE
  8
21
 10
0.589520
 20
0.778000
 30
0.000000
 11
0.578177
 21
0.778000
 31
0.000000
  0
LINE
  8
21
 10
0.578177
 20
0.778000
 30
0.000000
 11
0.572506
 21
0.783672
 31
0.000000
  0
LINE
  8
21
 10
0.572506
 20
0.783672
 30
0.000000
 11
0.595192
 21
0.806358
 31
0.000000
  0
LINE
  8
21
 10
0.609337
 20
0.812029
 30
0.000000
 11
0.609337
 21
0.778000
 31
0.000000
  0
LINE
  8
21
 10
0.609337
 20
0.789343
 30
0.000000
 11
0.632023
 21
0.812029
 31
0.000000
  0
LINE
  8
21
 10
0.615008
 20
0.795015
 30
0.000000
 11
0.632023
 21
0.778000
 31
0.000000
  0
LINE
  8
21
 10
0.646168
 20
0.778000
 30
0.000000
 11
0.651840
 21
0.778000
 31
0.000000
  0
LINE
  8
21
 10
0.651840
 20
0.778000
 30
0.000000
 11
0.651840
 21
0.789343
 31
0.000000
  0
LINE
  8
21
 10
0.651840
 20
0.789343
 30
0.000000
 11
0.646168
 21
0.795015
 31
0.000000
  0
LINE
  8
21
 10
0.646168
 20
0.795015
 30
0.000000
 11
0.646168
 21
0.806358
 31
0.000000
  0
LINE
  8
21
 10
0.646168
 20
0.806358
 30
0.000000
 11
0.651840
 21
0.812029
 31
0.000000
  0
LINE
  8
21
 10
0.651840
 20
0.812029
 30
0.000000
 11
0.663183
 21
0.812029
 31
0.000000
  0
LINE
  8
21
 10
0.663183
 20
0.812029
 30
0.000000
 11
0.668854
 21
0.806358
 31
0.000000
  0
LINE
  8
21
 10
0.668854
 20
0.806358
 30
0.000000
 11
0.668854
 21
0.795015
 31
0.000000
  0
LINE
  8
21
 10
0.668854
 20
0.795015
 30
0.000000
 11
0.663183
 21
0.789343
 31
0.000000
  0
LINE
  8
21
 10
0.663183
 20
0.789343
 30
0.000000
 11
0.663183
 21
0.778000
 31
0.000000
  0
LINE
  8
21
 10
0.663183
 20
0.778000
 30
0.000000
 11
0.668854
 21
0.778000
 31
0.000000
  0
LINE
  8
21
 10
0.700000
 20
0.670000
 30
0.000000
 11
0.500000
 21
0.670000
 31
0.000000
  0
LINE
  8
21
 10
0.500000
 20
0.670000
 30
0.000000
 11
0.500000
 21
0.700000
 31
0.000000
  0
LINE
  8
21
 10
0.500000
 20
0.700000
 30
0.000000
 11
0.500000
 21
0.730000
 31
0.000000
  0
LINE
  8
21
 10
0.500000
 20
0.730000
 30
0.000000
 11
0.700000
 21
0.730000
 31
0.000000
  0
LINE
  8
21
 10
0.700000
 20
0.730000
 30
0.000000
 11
0.700000
 21
0.700000
 31
0.000000
  0
LINE
  8
21
 10
0.700000
 20
0.700000
 30
0.000000
 11
0.700000
 21
0.670000
 31
0.000000
  0
LINE
  8
21
 10
0.500000
 20
0.700000
 30
0.000000
 11
0.490000
 21
0.700000
 31
0.000000
  0
LINE
  8
21
 10
0.700000
 20
0.700000
 30
0.000000
 11
0.710000
 21
0.700000
 31
0.000000
  0
LINE
  8
21
 10
0.535674
 20
0.700686
 30
0.000000
 11
0.547017
 21
0.712029
 31
0.000000
  0
LINE
  8
21
 10
0.547017
 20
0.712029
 30
0.000000
 11
0.547017
 21
0.678000
 31
0.000000
  0
LINE
  8
21
 10
0.535674
 20
0.678000
 30
0.000000
 11
0.558360
 21
0.678000
 31
0.000000
  0
LINE
  8
21
 10
0.572506
 20
0.683672
 30
0.000000
 11
0.572506
 21
0.706358
 31
0.000000
  0
LINE
  8
21
 10
0.572506
 20
0.706358
 30
0.000000
 11
0.578177
 21
0.712029
 31
0.000000
  0
LINE
  8
21
 10
0.578177
 20
0.712029
 30
0.000000
 11
0.589520
 21
0.712029
 31
0.000000
  0
LINE
  8
21
 10
0.589520
 20
0.712029
 30
0.000000
 11
0.595192
 21
0.706358
 31
0.000000
  0
LINE
  8
21
 10
0.595192
 20
0.706358
 30
0.000000
 11
0.595192
 21
0.683672
 31
0.000000
  0
LINE
  8
21
 10
0.595192
 20
0.683672
 30
0.000000
 11
0.589520
 21
0.678000
 31
0.000000
  0
LINE
  8
21
 10
0.589520
 20
0.678000
 30
0.000000
 11
0.578177
 21
0.678000
 31
0.000000
  0
LINE
  8
21
 10
0.578177
 20
0.678000
 30
0.000000
 11
0.572506
 21
0.683672
 31
0.000000
  0
LINE
  8
21
 10
0.572506
 20
0.683672
 30
0.000000
 11
0.595192
 21
0.706358
 31
0.000000
  0
LINE
  8
21
 10
0.609337
 20
0.683672
 30
0.000000
 11
0.609337
 21
0.706358
 31
0.000000
  0
LINE
  8
21
 10
0.609337
 20
0.706358
 30
0.000000
 11
0.615008
 21
0.712029
 31
0.000000
  0
LINE
  8
21
 10
0.615008
 20
0.712029
 30
0.000000
 11
0.626352
 21
0.712029
 31
0.000000
  0
LINE
  8
21
 10
0.626352
 20
0.712029
 30
0.000000
 11
0.632023
 21
0.706358
 31
0.000000
  0
LINE
  8
21
 10
0.632023
 20
0.706358
 30
0.000000
 11
0.632023
 21
0.683672
 31
0.000000
  0
LINE
  8
21
 10
0.632023
 20
0.683672
 30
0.000000
 11
0.626352
 21
0.678000
 31
0.000000
  0
LINE
  8
21
 10
0.626352
 20
0.678000
 30
0.000000
 11
0.615008
 21
0.678000
 31
0.000000
  0
LINE
  8
21
 10
0.615008
 20
0.678000
 30
0.000000
 11
0.609337
 21
0.683672
 31
0.000000
  0
LINE
  8
21
 10
0.609337
 20
0.683672
 30
0.000000
 11
0.632023
 21
0.706358
 31
0.000000
  0
LINE
  8
21
 10
0.646168
 20
0.678000
 30
0.000000
 11
0.651840
 21
0.678000
 31
0.000000
  0
LINE
  8
21
 10
0.651840
 20
0.678000
 30
0.000000
 11
0.651840
 21
0.689343
 31
0.000000
  0
LINE
  8
21
 10
0.651840
 20
0.689343
 30
0.000000
 11
0.646168
 21
0.695015
 31
0.000000
  0
LINE
  8
21
 10
0.646168
 20
0.695015
 30
0.000000
 11
0.646168
 21
0.706358
 31
0.000000
  0
LINE
  8
21
 10
0.646168
 20
0.706358
 30
0.000000
 11
0.651840
 21
0.712029
 31
0.000000
  0
LINE
  8
21
 10
0.651840
 20
0.712029
 30
0.000000
 11
0.663183
 21
0.712029
 31
0.000000
  0
LINE
  8
21
 10
0.663183
 20
0.712029
 30
0.000000
 11
0.668854
 21
0.706358
 31
0.000000
  0
LINE
  8
21
 10
0.668854
 20
0.706358
 30
0.000000
 11
0.668854
 21
0.695015
 31
0.000000
  0
LINE
  8
21
 10
0.668854
 20
0.695015
 30
0.000000
 11
0.663183
 21
0.689343
 31
0.000000
  0
LINE
  8
21
 10
0.663183
 20
0.689343
 30
0.000000
 11
0.663183
 21
0.678000
 31
0.000000
  0
LINE
  8
21
 10
0.663183
 20
0.678000
 30
0.000000
 11
0.668854
 21
0.678000
 31
0.000000
  0
LINE
  8
21
 10
0.700000
 20
0.570000
 30
0.000000
 11
0.500000
 21
0.570000
 31
0.000000
  0
LINE
  8
21
 10
0.500000
 20
0.570000
 30
0.000000
 11
0.500000
 21
0.600000
 31
0.000000
  0
LINE
  8
21
 10
0.500000
 20
0.600000
 30
0.000000
 11
0.500000
 21
0.630000
 31
0.000000
  0
LINE
  8
21
 10
0.500000
 20
0.630000
 30
0.000000
 11
0.700000
 21
0.630000
 31
0.000000
  0
LINE
  8
21
 10
0.700000
 20
0.630000
 30
0.000000
 11
0.700000
 21
0.600000
 31
0.000000
  0
LINE
  8
21
 10
0.700000
 20
0.600000
 30
0.000000
 11
0.700000
 21
0.570000
 31
0.000000
  0
LINE
  8
21
 10
0.500000
 20
0.600000
 30
0.000000
 11
0.490000
 21
0.600000
 31
0.000000
  0
LINE
  8
21
 10
0.700000
 20
0.600000
 30
0.000000
 11
0.710000
 21
0.600000
 31
0.000000
  0
LINE
  8
21
 10
0.535674
 20
0.600686
 30
0.000000
 11
0.547017
 21
0.612029
 31
0.000000
  0
LINE
  8
21
 10
0.547017
 20
0.612029
 30
0.000000
 11
0.547017
 21
0.578000
 31
0.000000
  0
LINE
  8
21
 10
0.535674
 20
0.578000
 30
0.000000
 11
0.558360
 21
0.578000
 31
0.000000
  0
LINE
  8
21
 10
0.572506
 20
0.583672
 30
0.000000
 11
0.572506
 21
0.606358
 31
0.000000
  0
LINE
  8
21
 10
0.572506
 20
0.606358
 30
0.000000
 11
0.578177
 21
0.612029
 31
0.000000
  0
LINE
  8
21
 10
0.578177
 20
0.612029
 30
0.000000
 11
0.589520
 21
0.612029
 31
0.000000
  0
LINE
  8
21
 10
0.589520
 20
0.612029
 30
0.000000
 11
0.595192
 21
0.606358
 31
0.000000
  0
LINE
  8
21
 10
0.595192
 20
0.606358
 30
0.000000
 11
0.595192
 21
0.583672
 31
0.000000
  0
LINE
  8
21
 10
0.595192
 20
0.583672
 30
0.000000
 11
0.589520
 21
0.578000
 31
0.000000
  0
LINE
  8
21
 10
0.589520
 20
0.578000
 30
0.000000
 11
0.578177
 21
0.578000
 31
0.000000
  0
LINE
  8
21
 10
0.578177
 20
0.578000
 30
0.000000
 11
0.572506
 21
0.583672
 31
0.000000
  0
LINE
  8
21
 10
0.572506
 20
0.583672
 30
0.000000
 11
0.595192
 21
0.606358
 31
0.000000
  0
LINE
  8
21
 10
0.609337
 20
0.612029
 30
0.000000
 11
0.609337
 21
0.578000
 31
0.000000
  0
LINE
  8
21
 10
0.609337
 20
0.589343
 30
0.000000
 11
0.632023
 21
0.612029
 31
0.000000
  0
LINE
  8
21
 10
0.615008
 20
0.595015
 30
0.000000
 11
0.632023
 21
0.578000
 31
0.000000
  0
LINE
  8
21
 10
0.646168
 20
0.578000
 30
0.000000
 11
0.651840
 21
0.578000
 31
0.000000
  0
LINE
  8
21
 10
0.651840
 20
0.578000
 30
0.000000
 11
0.651840
 21
0.589343
 31
0.000000
  0
LINE
  8
21
 10
0.651840
 20
0.589343
 30
0.000000
 11
0.646168
 21
0.595015
 31
0.000000
  0
LINE
  8
21
 10
0.646168
 20
0.595015
 30
0.000000
 11
0.646168
 21
0.606358
 31
0.000000
  0
LINE
  8
21
 10
0.646168
 20
0.606358
 30
0.000000
 11
0.651840
 21
0.612029
 31
0.000000
  0
LINE
  8
21
 10
0.651840
 20
0.612029
 30
0.000000
 11
0.663183
 21
0.612029
 31
0.000000
  0
LINE
  8
21
 10
0.663183
 20
0.612029
 30
0.000000
 11
0.668854
 21
0.606358
 31
0.000000
  0
LINE
  8
21
 10
0.668854
 20
0.606358
 30
0.000000
 11
0.668854
 21
0.595015
 31
0.000000
  0
LINE
  8
21
 10
0.668854
 20
0.595015
 30
0.000000
 11
0.663183
 21
0.589343
 31
0.000000
  0
LINE
  8
21
 10
0.663183
 20
0.589343
 30
0.000000
 11
0.663183
 21
0.578000
 31
0.000000
  0
LINE
  8
21
 10
0.663183
 20
0.578000
 30
0.000000
 11
0.668854
 21
0.578000
 31
0.000000
  0
LINE
  8
21
 10
0.250000
 20
0.800000
 30
0.000000
 11
0.250000
 21
1.200000
 31
0.000000
  0
LINE
  8
21
 10
-0.300000
 20
0.800000
 30
0.000000
 11
0.150000
 21
0.800000
 31
0.000000
  0
LINE
  8
21
 10
0.150000
 20
0.800000
 30
0.000000
 11
0.150000
 21
1.200000
 31
0.000000
  0
LINE
  8
21
 10
0.150000
 20
1.200000
 30
0.000000
 11
-0.300000
 21
1.200000
 31
0.000000
  0
LINE
  8
21
 10
-0.300000
 20
1.200000
 30
0.000000
 11
-0.300000
 21
0.800000
 31
0.000000
  0
LINE
  8
21
 10
1.375000
 20
0.100000
 30
0.000000
 11
1.275000
 21
0.100000
 31
0.000000
  0
LINE
  8
21
 10
1.275000
 20
0.100000
 30
0.000000
 11
1.275000
 21
0.050000
 31
0.000000
  0
LINE
  8
21
 10
1.275000
 20
0.050000
 30
0.000000
 11
0.975000
 21
0.050000
 31
0.000000
  0
LINE
  8
21
 10
0.975000
 20
0.050000
 30
0.000000
 11
0.975000
 21
1.450000
 31
0.000000
  0
LINE
  8
21
 10
0.975000
 20
1.450000
 30
0.000000
 11
1.675000
 21
1.450000
 31
0.000000
  0
LINE
  8
21
 10
1.675000
 20
1.450000
 30
0.000000
 11
1.675000
 21
0.050000
 31
0.000000
  0
LINE
  8
21
 10
1.675000
 20
0.050000
 30
0.000000
 11
1.375000
 21
0.050000
 31
0.000000
  0
LINE
  8
21
 10
1.375000
 20
0.050000
 30
0.000000
 11
1.375000
 21
0.100000
 31
0.000000
  0
LINE
  8
21
 10
1.841339
 20
2.101181
 30
0.000000
 11
1.258661
 21
2.101181
 31
0.000000
  0
LINE
  8
21
 10
1.258661
 20
2.101181
 30
0.000000
 11
1.258661
 21
1.538189
 31
0.000000
  0
LINE
  8
21
 10
1.258661
 20
1.538189
 30
0.000000
 11
1.841339
 21
1.538189
 31
0.000000
  0
LINE
  8
21
 10
1.841339
 20
1.538189
 30
0.000000
 11
1.841339
 21
2.101181
 31
0.000000
  0
LINE
  8
21
 10
1.750000
 20
1.812992
 30
0.000000
 11
1.700000
 21
2.043307
 31
0.000000
  0
LINE
  8
21
 10
1.700000
 20
2.043307
 30
0.000000
 11
1.650000
 21
2.043307
 31
0.000000
  0
LINE
  8
21
 10
1.650000
 20
2.043307
 30
0.000000
 11
1.600000
 21
1.812992
 31
0.000000
  0
LINE
  8
21
 10
1.500000
 20
1.812992
 30
0.000000
 11
1.450000
 21
2.043307
 31
0.000000
  0
LINE
  8
21
 10
1.450000
 20
2.043307
 30
0.000000
 11
1.400000
 21
2.043307
 31
0.000000
  0
LINE
  8
21
 10
1.400000
 20
2.043307
 30
0.000000
 11
1.350000
 21
1.812992
 31
0.000000
  0
CIRCLE
  8
20
 10
1.808661
 20
1.700000
 30
0.000000
 40
0.045276
  0
CIRCLE
  8
20
 10
1.291339
 20
1.700000
 30
0.000000
 40
0.045276
  0
LINE
  8
21
 10
0.550000
 20
1.562500
 30
0.000000
 11
0.550000
 21
1.962500
 31
0.000000
  0
LINE
  8
21
 10
0.550000
 20
1.962500
 30
0.000000
 11
0.700000
 21
1.962500
 31
0.000000
  0
LINE
  8
21
 10
0.700000
 20
1.962500
 30
0.000000
 11
0.725000
 21
1.962500
 31
0.000000
  0
LINE
  8
21
 10
0.725000
 20
1.962500
 30
0.000000
 11
0.725000
 21
1.562500
 31
0.000000
  0
LINE
  8
21
 10
0.725000
 20
1.562500
 30
0.000000
 11
0.700000
 21
1.562500
 31
0.000000
  0
LINE
  8
21
 10
0.700000
 20
1.562500
 30
0.000000
 11
0.550000
 21
1.562500
 31
0.000000
  0
LINE
  8
21
 10
0.700000
 20
1.562500
 30
0.000000
 11
0.700000
 21
1.962500
 31
0.000000
  0
LINE
  8
21
 10
1.025000
 20
1.562500
 30
0.000000
 11
1.025000
 21
1.962500
 31
0.000000
  0
LINE
  8
21
 10
1.025000
 20
1.962500
 30
0.000000
 11
1.175000
 21
1.962500
 31
0.000000
  0
LINE
  8
21
 10
1.175000
 20
1.962500
 30
0.000000
 11
1.200000
 21
1.962500
 31
0.000000
  0
LINE
  8
21
 10
1.200000
 20
1.962500
 30
0.000000
 11
1.200000
 21
1.562500
 31
0.000000
  0
LINE
  8
21
 10
1.200000
 20
1.562500
 30
0.000000
 11
1.175000
 21
1.562500
 31
0.000000
  0
LINE
  8
21
 10
1.175000
 20
1.562500
 30
0.000000
 11
1.025000
 21
1.562500
 31
0.000000
  0
LINE
  8
21
 10
1.175000
 20
1.562500
 30
0.000000
 11
1.175000
 21
1.962500
 31
0.000000
  0
LINE
  8
21
 10
0.250000
 20
0.150000
 30
0.000000
 11
0.250000
 21
0.750000
 31
0.000000
  0
LINE
  8
21
 10
0.150000
 20
0.150000
 30
0.000000
 11
-0.300000
 21
0.150000
 31
0.000000
  0
LINE
  8
21
 10
-0.300000
 20
0.150000
 30
0.000000
 11
-0.300000
 21
0.750000
 31
0.000000
  0
LINE
  8
21
 10
0.150000
 20
0.750000
 30
0.000000
 11
0.150000
 21
0.150000
 31
0.000000
  0
LINE
  8
21
 10
-0.300000
 20
0.750000
 30
0.000000
 11
0.150000
 21
0.750000
 31
0.000000
  0
LINE
  8
21
 10
1.750000
 20
1.400000
 30
0.000000
 11
1.750000
 21
0.800000
 31
0.000000
  0
LINE
  8
21
 10
1.850000
 20
1.400000
 30
0.000000
 11
2.300000
 21
1.400000
 31
0.000000
  0
LINE
  8
21
 10
2.300000
 20
1.400000
 30
0.000000
 11
2.300000
 21
0.800000
 31
0.000000
  0
LINE
  8
21
 10
1.850000
 20
0.800000
 30
0.000000
 11
1.850000
 21
1.400000
 31
0.000000
  0
LINE
  8
21
 10
2.300000
 20
0.800000
 30
0.000000
 11
1.850000
 21
0.800000
 31
0.000000
  0
LINE
  8
21
 10
1.937500
 20
1.612500
 30
0.000000
 11
1.937500
 21
1.437500
 31
0.000000
  0
LINE
  8
21
 10
1.937500
 20
1.437500
 30
0.000000
 11
1.862500
 21
1.437500
 31
0.000000
  0
LINE
  8
21
 10
1.862500
 20
1.437500
 30
0.000000
 11
1.862500
 21
1.612500
 31
0.000000
  0
LINE
  8
21
 10
1.862500
 20
1.612500
 30
0.000000
 11
1.937500
 21
1.612500
 31
0.000000
  0
LINE
  8
21
 10
1.750000
 20
0.750000
 30
0.000000
 11
1.750000
 21
0.150000
 31
0.000000
  0
LINE
  8
21
 10
1.850000
 20
0.750000
 30
0.000000
 11
2.300000
 21
0.750000
 31
0.000000
  0
LINE
  8
21
 10
2.300000
 20
0.750000
 30
0.000000
 11
2.300000
 21
0.150000
 31
0.000000
  0
LINE
  8
21
 10
1.850000
 20
0.150000
 30
0.000000
 11
1.850000
 21
0.750000
 31
0.000000
  0
LINE
  8
21
 10
2.300000
 20
0.150000
 30
0.000000
 11
1.850000
 21
0.150000
 31
0.000000
  0
ENDSEC
  0
EOF
